<?xml version="1.0" encoding="UTF-8" standalone="no"?>
<svg
   xmlns:dc="http://purl.org/dc/elements/1.1/"
   xmlns:cc="http://creativecommons.org/ns#"
   xmlns:rdf="http://www.w3.org/1999/02/22-rdf-syntax-ns#"
   xmlns:svg="http://www.w3.org/2000/svg"
   xmlns="http://www.w3.org/2000/svg"
   xmlns:sodipodi="http://sodipodi.sourceforge.net/DTD/sodipodi-0.dtd"
   xmlns:inkscape="http://www.inkscape.org/namespaces/inkscape"
   version="1.1"
   id="Capa_1"
   x="0px"
   y="0px"
   viewBox="0 0 429.653 429.653"
   style="enable-background:new 0 0 429.653 429.653;"
   xml:space="preserve"
   sodipodi:docname="001-alarm-clock.svg"
   inkscape:version="1.0.1 (3bc2e813f5, 2020-09-07)"><metadata
   id="metadata3220"><rdf:RDF><cc:Work
       rdf:about=""><dc:format>image/svg+xml</dc:format><dc:type
         rdf:resource="http://purl.org/dc/dcmitype/StillImage" /></cc:Work></rdf:RDF></metadata><defs
   id="defs3218" /><sodipodi:namedview
   pagecolor="#ffffff"
   bordercolor="#666666"
   borderopacity="1"
   objecttolerance="10"
   gridtolerance="10"
   guidetolerance="10"
   inkscape:pageopacity="0"
   inkscape:pageshadow="2"
   inkscape:window-width="1920"
   inkscape:window-height="1017"
   id="namedview3216"
   showgrid="false"
   inkscape:zoom="1.9783406"
   inkscape:cx="117.52274"
   inkscape:cy="214.82651"
   inkscape:window-x="-8"
   inkscape:window-y="-8"
   inkscape:window-maximized="1"
   inkscape:current-layer="g3183" />
<g
   id="g3183">
	<g
   id="g3181"
   style="fill:#00bbff;fill-opacity:1">
		<g
   id="g3179"
   style="fill:#00bbff;fill-opacity:1">
			<polygon
   points="1.493,82.24 28.907,114.88 126.933,32.64 99.52,0 "
   id="polygon3171"
   style="fill:#00bbff;fill-opacity:1" />
			<polygon
   points="302.72,32.747 400.747,114.987 428.16,82.347 330.133,0.107 "
   id="polygon3173"
   style="fill:#00bbff;fill-opacity:1" />
			<path
   d="m 214.72,45.653 c -106.133,0 -191.893,85.973 -191.893,192 0,106.027 85.76,192 191.893,192 106.133,0 192.107,-85.973 192.107,-192 0,-106.027 -85.974,-192 -192.107,-192 z m 0.107,341.334 c -82.453,0 -149.333,-66.88 -149.333,-149.333 0,-82.453 66.879,-149.334 149.333,-149.334 82.454,0 149.333,66.88 149.333,149.333 0,82.453 -66.773,149.334 -149.333,149.334 z"
   id="path3175"
   style="fill:#00bbff;fill-opacity:1" />
			<polygon
   points="193.493,258.987 294.72,319.893 310.827,293.547 225.493,242.987 225.493,130.987 193.493,130.987 "
   id="polygon3177"
   style="fill:#00bbff;fill-opacity:1" />
		</g>
	</g>
</g>
<g
   id="g3185">
</g>
<g
   id="g3187">
</g>
<g
   id="g3189">
</g>
<g
   id="g3191">
</g>
<g
   id="g3193">
</g>
<g
   id="g3195">
</g>
<g
   id="g3197">
</g>
<g
   id="g3199">
</g>
<g
   id="g3201">
</g>
<g
   id="g3203">
</g>
<g
   id="g3205">
</g>
<g
   id="g3207">
</g>
<g
   id="g3209">
</g>
<g
   id="g3211">
</g>
<g
   id="g3213">
</g>
</svg>
