<?xml version="1.0" encoding="UTF-8" standalone="no"?>
<svg
   xmlns:dc="http://purl.org/dc/elements/1.1/"
   xmlns:cc="http://creativecommons.org/ns#"
   xmlns:rdf="http://www.w3.org/1999/02/22-rdf-syntax-ns#"
   xmlns:svg="http://www.w3.org/2000/svg"
   xmlns="http://www.w3.org/2000/svg"
   xmlns:sodipodi="http://sodipodi.sourceforge.net/DTD/sodipodi-0.dtd"
   xmlns:inkscape="http://www.inkscape.org/namespaces/inkscape"
   version="1.1"
   id="Capa_1"
   x="0px"
   y="0px"
   viewBox="0 0 448 448"
   style="enable-background:new 0 0 448 448;"
   xml:space="preserve"
   sodipodi:docname="003-stopwatch.svg"
   inkscape:version="1.0.1 (3bc2e813f5, 2020-09-07)"><metadata
   id="metadata4467"><rdf:RDF><cc:Work
       rdf:about=""><dc:format>image/svg+xml</dc:format><dc:type
         rdf:resource="http://purl.org/dc/dcmitype/StillImage" /></cc:Work></rdf:RDF></metadata><defs
   id="defs4465" /><sodipodi:namedview
   pagecolor="#ffffff"
   bordercolor="#666666"
   borderopacity="1"
   objecttolerance="10"
   gridtolerance="10"
   guidetolerance="10"
   inkscape:pageopacity="0"
   inkscape:pageshadow="2"
   inkscape:window-width="1920"
   inkscape:window-height="1017"
   id="namedview4463"
   showgrid="false"
   inkscape:zoom="1.8973214"
   inkscape:cx="122.54118"
   inkscape:cy="224"
   inkscape:window-x="-8"
   inkscape:window-y="-8"
   inkscape:window-maximized="1"
   inkscape:current-layer="Capa_1" />
<g
   id="g4430"
   style="fill:#00bbff;fill-opacity:1">
	<g
   id="g4428"
   style="fill:#00bbff;fill-opacity:1">
		<g
   id="g4426"
   style="fill:#00bbff;fill-opacity:1">
			<rect
   x="160"
   y="0"
   width="128"
   height="42.667"
   id="rect4420"
   style="fill:#00bbff;fill-opacity:1" />
			<rect
   x="202.667"
   y="149.333"
   width="42.667"
   height="128"
   id="rect4422"
   style="fill:#00bbff;fill-opacity:1" />
			<path
   d="M373.867,136.213l30.4-30.4c-9.173-10.987-19.2-21.013-30.187-30.187l-30.4,30.4C310.933,79.787,269.227,64,223.893,64     C117.76,64,32,149.973,32,256s85.76,192,191.893,192S416,362.027,416,256C416,210.667,400.213,169.067,373.867,136.213z      M224,405.333c-82.453,0-149.333-66.88-149.333-149.333S141.547,106.667,224,106.667S373.333,173.547,373.333,256     S306.453,405.333,224,405.333z"
   id="path4424"
   style="fill:#00bbff;fill-opacity:1" />
		</g>
	</g>
</g>
<g
   id="g4432">
</g>
<g
   id="g4434">
</g>
<g
   id="g4436">
</g>
<g
   id="g4438">
</g>
<g
   id="g4440">
</g>
<g
   id="g4442">
</g>
<g
   id="g4444">
</g>
<g
   id="g4446">
</g>
<g
   id="g4448">
</g>
<g
   id="g4450">
</g>
<g
   id="g4452">
</g>
<g
   id="g4454">
</g>
<g
   id="g4456">
</g>
<g
   id="g4458">
</g>
<g
   id="g4460">
</g>
</svg>
