<?xml version="1.0" encoding="iso-8859-1"?>
<!-- Generator: Adobe Illustrator 19.0.0, SVG Export Plug-In . SVG Version: 6.00 Build 0)  -->
<svg version="1.1" id="Capa_1" xmlns="http://www.w3.org/2000/svg" xmlns:xlink="http://www.w3.org/1999/xlink" x="0px" y="0px"
	 viewBox="0 0 448 448" style="enable-background:new 0 0 448 448;" xml:space="preserve">
<g>
	<g>
		<g>
			<rect x="160" y="0" width="128" height="42.667"/>
			<rect x="202.667" y="149.333" width="42.667" height="128"/>
			<path d="M373.867,136.213l30.4-30.4c-9.173-10.987-19.2-21.013-30.187-30.187l-30.4,30.4C310.933,79.787,269.227,64,223.893,64
				C117.76,64,32,149.973,32,256s85.76,192,191.893,192S416,362.027,416,256C416,210.667,400.213,169.067,373.867,136.213z
				 M224,405.333c-82.453,0-149.333-66.88-149.333-149.333S141.547,106.667,224,106.667S373.333,173.547,373.333,256
				S306.453,405.333,224,405.333z"/>
		</g>
	</g>
</g>
<g>
</g>
<g>
</g>
<g>
</g>
<g>
</g>
<g>
</g>
<g>
</g>
<g>
</g>
<g>
</g>
<g>
</g>
<g>
</g>
<g>
</g>
<g>
</g>
<g>
</g>
<g>
</g>
<g>
</g>
</svg>
